<?xml version="1.0" standalone="no"?>
<!DOCTYPE svg PUBLIC "-//W3C//DTD SVG 20010904//EN"
 "http://www.w3.org/TR/2001/REC-SVG-20010904/DTD/svg10.dtd">
<svg version="1.0" xmlns="http://www.w3.org/2000/svg"
 width="512.000000pt" height="512.000000pt" viewBox="0 0 512.000000 512.000000"
 preserveAspectRatio="xMidYMid meet">

<g transform="translate(0.000000,512.000000) scale(0.100000,-0.100000)"
fill="#000000" stroke="none">
<path d="M961 4954 c-27 -35 -27 -39 11 -120 20 -43 34 -90 36 -124 l4 -56
-58 -18 c-235 -74 -394 -239 -433 -451 -15 -83 -52 -139 -124 -190 -117 -82
-146 -113 -163 -174 -14 -46 -15 -66 -6 -116 19 -100 73 -195 150 -264 119
-108 249 -161 393 -161 l77 0 -5 -42 c-13 -115 -65 -232 -141 -318 -27 -31
-47 -68 -61 -115 -114 -369 -31 -824 194 -1065 153 -164 228 -323 228 -480 0
-67 -8 -98 -71 -282 -39 -114 -75 -216 -81 -226 -6 -11 -66 -44 -141 -77 -72
-32 -144 -70 -159 -84 -51 -48 -75 -108 -75 -186 0 -82 22 -134 80 -185 72
-63 85 -65 344 -65 231 0 236 0 284 25 27 14 61 40 76 58 18 22 75 159 161
389 126 334 135 353 148 331 30 -48 189 -195 249 -229 l63 -37 -53 -7 c-140
-17 -221 -66 -264 -159 -31 -67 -33 -158 -3 -221 26 -56 104 -128 155 -142 27
-8 268 -12 769 -14 l730 -2 97 26 c53 15 145 48 204 73 462 203 835 591 1108
1154 205 422 257 808 170 1240 -76 372 -250 722 -506 1020 -102 118 -141 143
-226 148 -56 3 -75 0 -112 -20 -54 -29 -104 -99 -114 -158 -11 -68 10 -117 99
-235 220 -293 337 -564 375 -869 17 -131 7 -370 -20 -498 -78 -370 -286 -699
-590 -934 l-95 -74 -6 418 c-7 445 -13 515 -62 657 -38 109 -72 179 -130 268
-137 210 -310 361 -557 488 -196 100 -354 237 -500 434 -134 180 -215 340
-250 495 -27 114 -71 243 -112 325 -104 209 -285 396 -468 485 -39 19 -49 31
-79 93 -68 144 -203 247 -368 282 -106 23 -148 20 -172 -11z m64 -748 c72 -72
16 -176 -96 -176 -111 0 -166 104 -94 176 21 21 33 24 95 24 62 0 74 -3 95
-24z"/>
</g>
</svg>
